<?xml version="1.0" encoding="utf-8"?>
<!-- Generator: Adobe Illustrator 16.0.0, SVG Export Plug-In . SVG Version: 6.00 Build 0)  -->
<!DOCTYPE svg PUBLIC "-//W3C//DTD SVG 1.1//EN" "http://www.w3.org/Graphics/SVG/1.1/DTD/svg11.dtd">
<svg version="1.1" id="Calque_1" xmlns="http://www.w3.org/2000/svg" xmlns:xlink="http://www.w3.org/1999/xlink" x="0px" y="0px"
	 width="22.5px" height="25px" viewBox="0 0 22.5 25" enable-background="new 0 0 22.5 25" xml:space="preserve">
<path fill="#e43e0f" d="M0.034,23.334v0.417c0,0.687,0.563,1.249,1.25,1.249H21.25c0.688,0,1.25-0.563,1.25-1.249v-13.75V5.417
	c0-1.15-0.934-2.083-2.082-2.083H18.75H17.5V1.667C17.5,0.746,16.754,0,15.834,0c-0.922,0-1.666,0.746-1.666,1.667v1.667h-2.084
	V1.667C12.084,0.746,11.337,0,10.417,0S8.75,0.746,8.75,1.667v1.667H6.667V1.667C6.667,0.746,5.92,0,5,0
	C4.079,0,3.333,0.746,3.333,1.667v1.667h-1.25C0.933,3.333,0,4.267,0,5.417V8.75v9.583 M15,1.667c0-0.458,0.375-0.833,0.834-0.833
	s0.832,0.375,0.832,0.833V3.75V5c0,0.459-0.373,0.833-0.832,0.833S15,5.459,15,5V3.75V1.667z M9.583,1.667
	c0-0.458,0.375-0.833,0.833-0.833s0.833,0.375,0.833,0.833V3.75V5c0,0.459-0.375,0.833-0.833,0.833S9.583,5.459,9.583,5V3.75V1.667z
	 M4.167,1.667c0-0.458,0.375-0.833,0.833-0.833s0.833,0.375,0.833,0.833V3.75V5c0,0.459-0.375,0.833-0.833,0.833
	S4.167,5.459,4.167,5V3.75V1.667z M20.162,22.095c0,0.743-0.547,1.347-1.225,1.347H3.021c-0.676,0-1.225-0.604-1.225-1.347V11.32
	c0-0.744,0.548-1.347,1.225-1.347h15.917c0.678,0,1.225,0.604,1.225,1.347V22.095z"/>
</svg>
