<?xml version="1.0" encoding="utf-8"?>
<!-- Generator: Adobe Illustrator 16.0.0, SVG Export Plug-In . SVG Version: 6.00 Build 0)  -->
<!DOCTYPE svg PUBLIC "-//W3C//DTD SVG 1.1//EN" "http://www.w3.org/Graphics/SVG/1.1/DTD/svg11.dtd">
<svg version="1.1" id="Calque_1" xmlns="http://www.w3.org/2000/svg" xmlns:xlink="http://www.w3.org/1999/xlink" x="0px" y="0px"
	 width="35px" height="35px" viewBox="0 0 35 35" enable-background="new 0 0 35 35" xml:space="preserve">
<g>
	<g>
		<path fill="#2263AF" d="M33.686,0h-31C1.582,0,0,0.836,0,1.941v30.871l34.461-32.5C34.143,0.096,34.1,0,33.686,0z"/>
		<path fill="#2072B9" d="M34.117,0.283L0,32.813v0.129C0,34.045,1.582,35,2.686,35h31C34.791,35,35,34.045,35,32.941v-31
			C35,1.25,34.65,0.643,34.117,0.283z"/>
	</g>
	<g>
		<path fill="#FFFFFF" d="M14.111,11.078l0.252,3.756h-0.252c-0.169-0.561-0.374-1.041-0.615-1.441
			c-0.242-0.402-0.518-0.73-0.827-0.986s-0.651-0.443-1.026-0.563c-0.374-0.119-0.781-0.178-1.222-0.178
			c-0.738,0-1.393,0.18-1.963,0.541c-0.569,0.361-1.023,0.916-1.359,1.666c-0.186,0.412-0.326,0.881-0.424,1.404
			s-0.146,1.111-0.146,1.764c0,0.994,0.16,1.859,0.48,2.598c0.163,0.375,0.367,0.703,0.615,0.986
			c0.246,0.281,0.527,0.518,0.843,0.707c0.314,0.191,0.658,0.334,1.03,0.432c0.372,0.1,0.759,0.148,1.16,0.148
			c0.456,0,0.85-0.047,1.182-0.139c0.331-0.094,0.632-0.234,0.903-0.424s0.534-0.43,0.786-0.717c0.253-0.287,0.531-0.625,0.835-1.01
			l0.253,0.162c-0.277,0.488-0.576,0.912-0.896,1.271c-0.32,0.357-0.668,0.654-1.042,0.887c-0.375,0.234-0.781,0.406-1.218,0.518
			c-0.438,0.111-0.908,0.168-1.413,0.168c-1.836,0-3.253-0.68-4.252-2.037c-0.749-1.01-1.124-2.199-1.124-3.568
			c0-0.656,0.09-1.293,0.269-1.908c0.18-0.617,0.456-1.186,0.831-1.707c0.261-0.369,0.558-0.699,0.892-0.99
			c0.334-0.289,0.695-0.535,1.084-0.732c0.388-0.199,0.797-0.35,1.226-0.451c0.429-0.104,0.868-0.156,1.319-0.156
			c0.798,0,1.585,0.195,2.362,0.588c0.238,0.125,0.401,0.184,0.488,0.178c0.174,0,0.319-0.072,0.436-0.215
			c0.117-0.145,0.2-0.328,0.249-0.551H14.111z"/>
		<path fill="#FFFFFF" d="M20.342,22.074v0.301h-4.732v-0.301h0.392c0.461,0,0.792-0.133,0.993-0.398
			c0.131-0.17,0.195-0.588,0.195-1.256v-7.135c0-0.26-0.005-0.471-0.016-0.635c-0.012-0.162-0.031-0.297-0.062-0.402
			c-0.029-0.107-0.073-0.189-0.13-0.25c-0.058-0.059-0.135-0.115-0.232-0.17c-0.239-0.131-0.488-0.195-0.749-0.195h-0.392v-0.301
			h4.732v0.301h-0.399c-0.456,0-0.784,0.133-0.985,0.398c-0.136,0.168-0.203,0.586-0.203,1.254v7.135
			c0,0.262,0.005,0.473,0.016,0.637c0.011,0.162,0.031,0.295,0.062,0.398c0.029,0.104,0.074,0.186,0.135,0.248
			c0.06,0.063,0.138,0.121,0.235,0.176c0.233,0.131,0.48,0.195,0.741,0.195H20.342z"/>
		<path fill="#FFFFFF" d="M28.454,16.74c0.45,0.098,0.835,0.23,1.152,0.398s0.577,0.367,0.778,0.594
			c0.2,0.229,0.347,0.48,0.439,0.754c0.092,0.273,0.139,0.563,0.139,0.867c0,0.271-0.045,0.541-0.135,0.811
			s-0.219,0.521-0.387,0.758s-0.373,0.451-0.615,0.643c-0.241,0.193-0.515,0.35-0.818,0.469c-0.603,0.229-1.525,0.342-2.77,0.342
			h-5.212v-0.301h0.415c0.456,0,0.787-0.146,0.993-0.439c0.125-0.191,0.188-0.596,0.188-1.215v-7.135
			c0-0.678-0.078-1.109-0.236-1.295c-0.211-0.238-0.526-0.357-0.944-0.357h-0.415v-0.301h4.772c0.891,0,1.604,0.064,2.142,0.195
			c0.407,0.098,0.768,0.236,1.08,0.414c0.312,0.18,0.574,0.389,0.785,0.627c0.212,0.24,0.372,0.504,0.48,0.795
			c0.109,0.291,0.163,0.596,0.163,0.916c0,0.555-0.168,1.049-0.505,1.486S29.111,16.527,28.454,16.74z M24.187,16.299
			c0.412,0.076,0.926,0.115,1.539,0.115c0.798,0,1.393-0.084,1.783-0.254c0.201-0.086,0.379-0.197,0.534-0.334
			c0.154-0.135,0.283-0.287,0.387-0.455c0.103-0.168,0.182-0.35,0.236-0.545c0.054-0.197,0.081-0.4,0.081-0.611
			c0-0.314-0.066-0.615-0.199-0.9c-0.134-0.285-0.33-0.533-0.591-0.746c-0.261-0.211-0.584-0.379-0.969-0.504
			c-0.386-0.125-0.831-0.188-1.336-0.188c-0.554,0-1.043,0.061-1.466,0.18V16.299z M24.187,21.578
			c0.624,0.146,1.246,0.219,1.865,0.219c0.493,0,0.93-0.059,1.307-0.18c0.378-0.119,0.693-0.283,0.949-0.492
			c0.255-0.209,0.446-0.453,0.574-0.732c0.127-0.279,0.191-0.58,0.191-0.9c0-0.354-0.069-0.684-0.208-0.99s-0.351-0.572-0.635-0.797
			c-0.285-0.227-0.644-0.404-1.075-0.533c-0.432-0.131-0.941-0.197-1.527-0.197c-0.342,0-0.632,0.006-0.867,0.018
			c-0.236,0.01-0.428,0.029-0.574,0.057V21.578z"/>
	</g>
</g>
</svg>
