<?xml version="1.0" encoding="utf-8"?>
<!-- Generator: Adobe Illustrator 16.0.0, SVG Export Plug-In . SVG Version: 6.00 Build 0)  -->
<!DOCTYPE svg PUBLIC "-//W3C//DTD SVG 1.1//EN" "http://www.w3.org/Graphics/SVG/1.1/DTD/svg11.dtd">
<svg version="1.1" id="Calque_1" xmlns="http://www.w3.org/2000/svg" xmlns:xlink="http://www.w3.org/1999/xlink" x="0px" y="0px"
	 width="22px" height="22px" viewBox="0 0 25 25" enable-background="new 0 0 25 25" xml:space="preserve">
<g>
	<path fill="#FFFFFF" d="M10.6,16.497v-1.663c-0.999-0.639-1.624-1.792-1.624-3.073V9.075c0-2.048,1.624-3.712,3.623-3.712
		c1.997,0,3.62,1.665,3.62,3.712v2.686c0,1.281-0.625,2.435-1.623,3.073v1.663c0.998,0.77,6.494,4.607,6.494,4.607
		c1.998-2.175,3.371-5.119,3.371-8.447c0-6.656-5.369-12.158-11.862-12.158C6.105,0.5,0.733,6.002,0.733,12.658
		c0,3.328,1.251,6.272,3.372,8.447C4.105,21.104,9.476,17.267,10.6,16.497"/>
	<circle fill="none" stroke="none" stroke-miterlimit="10" cx="12.349" cy="12.689" r="11.811"/>
</g>
</svg>
