<?xml version="1.0" encoding="utf-8"?>
<!-- Generator: Adobe Illustrator 16.0.0, SVG Export Plug-In . SVG Version: 6.00 Build 0)  -->
<!DOCTYPE svg PUBLIC "-//W3C//DTD SVG 1.1//EN" "http://www.w3.org/Graphics/SVG/1.1/DTD/svg11.dtd">
<svg version="1.1" id="Calque_1" xmlns="http://www.w3.org/2000/svg" xmlns:xlink="http://www.w3.org/1999/xlink" x="0px" y="0px"
	 width="15px" height="20px" viewBox="0 0 15 20" enable-background="new 0 0 15 20" xml:space="preserve">
<g>
	<path id="i-414" fill="#FFFFFF" d="M8.5,7h-2V5h2V7z M11.5,11h-2v2.001h2V11z M11.5,8.001h-2V10h2V8.001z M11.5,5h-2v2h2V5z M5.5,5
		h-2v2h2V5z M5.5,11h-2v2.001h2V11z M5.5,8.001h-2V10h2V8.001z M13.6,3.111V19H15v1h-1.4H10H5H1.399H0v-1h1.399V3.111H0v-1h1.399
		h1.4v-1h9.4v1h1.4H15v1H13.6z M9,16.5C9,15.674,8.326,15,7.5,15C6.673,15,6,15.674,6,16.5V19h3V16.5z M12.6,3.111H2.4V19H5v-2.5
		c0-1.379,1.122-2.499,2.5-2.499c1.379,0,2.5,1.12,2.5,2.499V19h2.6V3.111z M8.5,11h-2v2.001h2V11z M8.5,8.001h-2V10h2V8.001z"/>
</g>
</svg>
