<?xml version="1.0" encoding="utf-8"?>
<!-- Generator: Adobe Illustrator 16.0.0, SVG Export Plug-In . SVG Version: 6.00 Build 0)  -->
<!DOCTYPE svg PUBLIC "-//W3C//DTD SVG 1.1//EN" "http://www.w3.org/Graphics/SVG/1.1/DTD/svg11.dtd">
<svg version="1.1" id="Calque_1" xmlns="http://www.w3.org/2000/svg" xmlns:xlink="http://www.w3.org/1999/xlink" x="0px" y="0px"
	 width="15px" height="15px" viewBox="0 0 17 14" enable-background="new 0 0 17 14" xml:space="preserve">
<g>
	<g>
		<path fill="#ffffff" d="M0,0.117h3.822v2.599H0V0.117z M0,3.91h3.822v9.973H0V3.91z"/>
		<path fill="#ffffff" d="M6.455,3.91h3.559v1.625c0.531-0.663,1.07-1.138,1.615-1.423c0.545-0.285,1.207-0.428,1.99-0.428
			c1.057,0,1.885,0.315,2.484,0.944C16.701,5.256,17,6.23,17,7.544v6.339h-3.84V8.4c0-0.628-0.117-1.072-0.348-1.331
			c-0.23-0.259-0.559-0.39-0.979-0.39c-0.461,0-0.836,0.176-1.125,0.526c-0.287,0.35-0.434,0.98-0.434,1.888v4.789h-3.82V3.91z"/>
	</g>
</g>
</svg>
