<?xml version="1.0" encoding="utf-8"?>
<!-- Generator: Adobe Illustrator 16.0.0, SVG Export Plug-In . SVG Version: 6.00 Build 0)  -->
<!DOCTYPE svg PUBLIC "-//W3C//DTD SVG 1.1//EN" "http://www.w3.org/Graphics/SVG/1.1/DTD/svg11.dtd">
<svg version="1.1" id="Calque_1" xmlns="http://www.w3.org/2000/svg" xmlns:xlink="http://www.w3.org/1999/xlink" x="0px" y="0px"
	 width="20px" height="20px" viewBox="0 0 20 20" enable-background="new 0 0 20 20" xml:space="preserve">
<path fill="#ffffff" d="M-310.208-3775.19h-7.654c-3.332,0-6.043-2.711-6.043-6.044v-7.654c0-3.331,2.711-6.044,6.043-6.044h7.654
	c3.336,0,6.045,2.713,6.045,6.044v7.654C-304.162-3777.901-306.871-3775.19-310.208-3775.19 M-317.861-3793.454
	c-2.514,0-4.562,2.047-4.562,4.565v7.654c0,2.517,2.048,4.566,4.562,4.566h7.654c2.52,0,4.565-2.049,4.565-4.566v-7.654
	c0-2.518-2.045-4.565-4.565-4.565H-317.861z"/>
<path fill="#ffffff" d="M-314.033-3780.067c-2.752,0-4.992-2.24-4.992-4.994c0-2.753,2.24-4.994,4.992-4.994
	c2.754,0,4.994,2.241,4.994,4.994C-309.039-3782.307-311.279-3780.067-314.033-3780.067 M-314.033-3788.541
	c-1.918,0-3.48,1.56-3.48,3.479c0,1.919,1.562,3.48,3.48,3.48s3.48-1.561,3.48-3.48
	C-310.553-3786.98-312.115-3788.541-314.033-3788.541"/>
<path fill="#ffffff" d="M-307.195-3790.597c0,0.717-0.58,1.298-1.299,1.298c-0.721,0-1.303-0.581-1.303-1.298
	c0-0.72,0.582-1.302,1.303-1.302C-307.775-3791.898-307.195-3791.316-307.195-3790.597"/>
<rect x="-950" y="-3805" fill="none" width="1920" height="7630"/>
<path fill="#ffffff" d="M-310.208-3775.19h-7.654c-3.332,0-6.043-2.711-6.043-6.044v-7.654c0-3.331,2.711-6.044,6.043-6.044h7.654
	c3.336,0,6.045,2.713,6.045,6.044v7.654C-304.162-3777.901-306.871-3775.19-310.208-3775.19 M-317.861-3793.454
	c-2.514,0-4.562,2.047-4.562,4.565v7.654c0,2.517,2.048,4.566,4.562,4.566h7.654c2.52,0,4.565-2.049,4.565-4.566v-7.654
	c0-2.518-2.045-4.565-4.565-4.565H-317.861z"/>
<path fill="#ffffff" d="M-314.033-3780.067c-2.752,0-4.992-2.24-4.992-4.994c0-2.753,2.24-4.994,4.992-4.994
	c2.754,0,4.994,2.241,4.994,4.994C-309.039-3782.307-311.279-3780.067-314.033-3780.067 M-314.033-3788.541
	c-1.918,0-3.48,1.56-3.48,3.479c0,1.919,1.562,3.48,3.48,3.48s3.48-1.561,3.48-3.48
	C-310.553-3786.98-312.115-3788.541-314.033-3788.541"/>
<path fill="#ffffff" d="M-307.195-3790.597c0,0.717-0.58,1.298-1.299,1.298c-0.721,0-1.303-0.581-1.303-1.298
	c0-0.72,0.582-1.302,1.303-1.302C-307.775-3791.898-307.195-3791.316-307.195-3790.597"/>
<rect x="-950" y="-3805" fill="none" width="1920" height="7630"/>
<path fill="#ffffff" d="M-310.208-3775.19h-7.654c-3.332,0-6.043-2.711-6.043-6.044v-7.654c0-3.331,2.711-6.044,6.043-6.044h7.654
	c3.336,0,6.045,2.713,6.045,6.044v7.654C-304.162-3777.901-306.871-3775.19-310.208-3775.19 M-317.861-3793.454
	c-2.514,0-4.562,2.047-4.562,4.565v7.654c0,2.517,2.048,4.566,4.562,4.566h7.654c2.52,0,4.565-2.049,4.565-4.566v-7.654
	c0-2.518-2.045-4.565-4.565-4.565H-317.861z"/>
<path fill="#ffffff" d="M-314.033-3780.067c-2.752,0-4.992-2.24-4.992-4.994c0-2.753,2.24-4.994,4.992-4.994
	c2.754,0,4.994,2.241,4.994,4.994C-309.039-3782.307-311.279-3780.067-314.033-3780.067 M-314.033-3788.541
	c-1.918,0-3.48,1.56-3.48,3.479c0,1.919,1.562,3.48,3.48,3.48s3.48-1.561,3.48-3.48
	C-310.553-3786.98-312.115-3788.541-314.033-3788.541"/>
<path fill="#ffffff" d="M-307.195-3790.597c0,0.717-0.58,1.298-1.299,1.298c-0.721,0-1.303-0.581-1.303-1.298
	c0-0.72,0.582-1.302,1.303-1.302C-307.775-3791.898-307.195-3791.316-307.195-3790.597"/>
<rect x="-950" y="-3805" fill="none" width="1920" height="7630"/>
<g>
	<path fill="#ffffff" d="M13.826,19.871H6.172c-3.332,0-6.043-2.711-6.043-6.044V6.173c0-3.331,2.711-6.044,6.043-6.044h7.654
		c3.336,0,6.045,2.713,6.045,6.044v7.654C19.871,17.16,17.162,19.871,13.826,19.871 M6.172,1.607c-2.514,0-4.562,2.048-4.562,4.565
		v7.654c0,2.518,2.048,4.566,4.562,4.566h7.654c2.52,0,4.564-2.049,4.564-4.566V6.173c0-2.518-2.045-4.565-4.564-4.565H6.172z"/>
	<path fill="#ffffff" d="M10,14.994c-2.752,0-4.992-2.239-4.992-4.994c0-2.753,2.24-4.994,4.992-4.994
		c2.754,0,4.994,2.241,4.994,4.994C14.994,12.755,12.754,14.994,10,14.994 M10,6.521c-1.918,0-3.48,1.561-3.48,3.479
		s1.562,3.48,3.48,3.48s3.48-1.562,3.48-3.48S11.918,6.521,10,6.521"/>
	<path fill="#ffffff" d="M16.838,4.465c0,0.717-0.58,1.298-1.299,1.298c-0.721,0-1.303-0.581-1.303-1.298
		c0-0.72,0.582-1.302,1.303-1.302C16.258,3.163,16.838,3.745,16.838,4.465"/>
</g>
</svg>
