<?xml version="1.0" encoding="utf-8"?>
<!-- Generator: Adobe Illustrator 16.0.0, SVG Export Plug-In . SVG Version: 6.00 Build 0)  -->
<!DOCTYPE svg PUBLIC "-//W3C//DTD SVG 1.1//EN" "http://www.w3.org/Graphics/SVG/1.1/DTD/svg11.dtd">
<svg version="1.1" id="Calque_1" xmlns="http://www.w3.org/2000/svg" xmlns:xlink="http://www.w3.org/1999/xlink" x="0px" y="0px"
	 width="13px" height="13px" viewBox="0 0 15 15" enable-background="new 0 0 15 15" xml:space="preserve">
<g>
	<polygon fill="#FFFFFF" points="7.5,0.525 0.199,5.76 0.459,14.529 14.77,14.998 14.479,5.715 	"/>
	<g>
		<g>
			<path fill="#052a69" d="M14.77,14.998H0.229C0.103,14.998,0,14.895,0,14.764V5.683C0,5.607,0.036,5.535,0.095,5.49l7.271-5.445
				c0.08-0.061,0.189-0.061,0.27,0l7.271,5.445C14.965,5.535,15,5.607,15,5.683v9.081C15,14.895,14.896,14.998,14.77,14.998z
				 M0.459,14.529h14.082V5.801L7.5,0.525L0.459,5.801V14.529z"/>
		</g>
		<g>
			<path fill="#052a69" d="M14.77,14.998c-0.051,0-0.102-0.016-0.145-0.053L7.5,8.98l-7.125,5.965
				c-0.099,0.082-0.242,0.068-0.323-0.031c-0.079-0.1-0.064-0.248,0.032-0.33l7.27-6.088c0.086-0.07,0.207-0.07,0.291,0l7.271,6.088
				c0.098,0.082,0.113,0.23,0.031,0.33C14.902,14.971,14.836,14.998,14.77,14.998z"/>
		</g>
		<g>
			<path fill="#052a69" d="M5.672,10.234c-0.048,0-0.097-0.016-0.138-0.047l-5.29-4.1C0.143,6.01,0.123,5.861,0.199,5.76
				C0.276,5.656,0.42,5.635,0.521,5.715l5.291,4.1c0.101,0.079,0.12,0.225,0.044,0.327C5.811,10.203,5.741,10.234,5.672,10.234z"/>
		</g>
		<g>
			<path fill="#052a69" d="M9.328,10.234c-0.07,0-0.137-0.031-0.184-0.093c-0.076-0.103-0.057-0.248,0.045-0.327l5.289-4.1
				c0.102-0.08,0.246-0.059,0.322,0.045c0.076,0.102,0.057,0.25-0.043,0.328l-5.291,4.1C9.426,10.219,9.377,10.234,9.328,10.234z"/>
		</g>
	</g>
</g>
</svg>
