<?xml version="1.0" encoding="utf-8"?>
<!-- Generator: Adobe Illustrator 16.0.0, SVG Export Plug-In . SVG Version: 6.00 Build 0)  -->
<!DOCTYPE svg PUBLIC "-//W3C//DTD SVG 1.1//EN" "http://www.w3.org/Graphics/SVG/1.1/DTD/svg11.dtd">
<svg version="1.1" id="Calque_1" xmlns="http://www.w3.org/2000/svg" xmlns:xlink="http://www.w3.org/1999/xlink" x="0px" y="0px"
	 width="13px" height="16px" viewBox="0 0 13 18" enable-background="new 0 0 13 18" xml:space="preserve">
<g>
	<path fill="#ffffff" d="M6.5,0C3.05,0,0.23,2.85,0.23,6.34c0,1.3,0.41,2.6,1.2,3.67c0.03,0,0.03,0.04,0.03,0.04L6.53,18
		c5.42-8.49,5.07-7.95,5.1-8.05c0.73-1.05,1.14-2.31,1.14-3.61C12.77,2.85,9.96,0,6.5,0z M6.53,9.83c-1.93,0-3.48-1.56-3.48-3.49
		c0-1.94,1.55-3.49,3.48-3.49c1.93,0,3.49,1.55,3.49,3.49C10.02,8.27,8.46,9.83,6.53,9.83z"/>
</g>
</svg>
