<?xml version="1.0" encoding="utf-8"?>
<!-- Generator: Adobe Illustrator 16.0.0, SVG Export Plug-In . SVG Version: 6.00 Build 0)  -->
<!DOCTYPE svg PUBLIC "-//W3C//DTD SVG 1.1//EN" "http://www.w3.org/Graphics/SVG/1.1/DTD/svg11.dtd">
<svg version="1.1" id="Calque_1" xmlns="http://www.w3.org/2000/svg" xmlns:xlink="http://www.w3.org/1999/xlink" x="0px" y="0px"
	 width="35px" height="35px" viewBox="0 0 35 35" enable-background="new 0 0 35 35" xml:space="preserve">
<g>
	<g>
		<path fill="#FCD404" d="M32.785,0h-31C0.681,0,0,0.836,0,1.941v30.871l34.011-32.5C33.691,0.096,33.199,0,32.785,0z"/>
		<path fill="#FCE159" d="M34.117,0.283L0,32.813v0.129C0,34.045,0.681,35,1.786,35h31C33.891,35,35,34.045,35,32.941v-31
			C35,1.25,34.65,0.643,34.117,0.283z"/>
	</g>
	<g>
		<path fill="#E9B040" d="M17.292,24.107c1.561,1.453,3.657,2.332,5.938,2.332c4.896,0,8.859-4.031,8.859-8.99
			c0-4.975-3.963-9.008-8.859-9.008c-2.281,0-4.377,0.879-5.938,2.332c-1.789,1.652-2.922,4.033-2.922,6.676
			C14.371,20.09,15.502,22.469,17.292,24.107L17.292,24.107z"/>
		<path fill="#E9B040" d="M30.91,22.455c0-0.158,0.125-0.281,0.275-0.281c0.17,0,0.289,0.123,0.289,0.281
			c0,0.168-0.119,0.293-0.289,0.293C31.035,22.748,30.91,22.623,30.91,22.455z M31.187,22.684c0.122,0,0.229-0.109,0.229-0.229
			c0-0.125-0.107-0.219-0.229-0.219c-0.107,0-0.214,0.094-0.214,0.219C30.973,22.574,31.079,22.684,31.187,22.684z M31.156,22.594
			h-0.063V22.33h0.107c0.017,0,0.047,0,0.063,0.014c0.029,0.016,0.029,0.033,0.029,0.063c0,0.031-0.016,0.063-0.043,0.063
			l0.059,0.125h-0.076l-0.03-0.109h-0.046V22.594v-0.156h0.061c0.016,0,0.016-0.014,0.016-0.029c0-0.014,0-0.016-0.016-0.031h-0.061
			V22.594L31.156,22.594z"/>
		<path fill="#C20E1A" d="M20.154,16.49c-0.031-0.324-0.094-0.633-0.154-0.957h-5.417c0.063-0.326,0.154-0.633,0.246-0.943h4.913
			c-0.107-0.322-0.229-0.645-0.37-0.955h-4.159c0.151-0.33,0.322-0.648,0.504-0.961h3.138c-0.203-0.328-0.428-0.645-0.674-0.941
			H16.39c0.278-0.342,0.58-0.66,0.903-0.957c-1.576-1.438-3.657-2.334-5.952-2.334c-4.88,0-8.859,4.033-8.859,9.008
			c0,4.959,3.979,8.992,8.859,8.992c2.295,0,4.376-0.881,5.952-2.334c0.32-0.291,0.618-0.607,0.889-0.943H16.39
			c-0.244-0.309-0.456-0.617-0.671-0.957h3.136c0.197-0.305,0.373-0.625,0.52-0.957h-4.162c-0.138-0.309-0.274-0.617-0.382-0.941
			h4.912c0.107-0.311,0.184-0.637,0.261-0.959c0.062-0.311,0.122-0.635,0.153-0.959c0.029-0.313,0.045-0.629,0.045-0.941
			C20.201,17.123,20.186,16.799,20.154,16.49L20.154,16.49z"/>
		<path fill="#FFFFFF" d="M30.91,19.535c0-0.17,0.125-0.293,0.275-0.293c0.17,0,0.289,0.123,0.289,0.293
			c0,0.154-0.119,0.293-0.289,0.293C31.035,19.828,30.91,19.689,30.91,19.535z M31.187,19.752c0.122,0,0.229-0.096,0.229-0.217
			c0-0.125-0.107-0.217-0.229-0.217c-0.107,0-0.214,0.09-0.214,0.217C30.973,19.656,31.079,19.752,31.187,19.752z M31.156,19.656
			h-0.063V19.41h0.17c0.029,0.016,0.029,0.047,0.029,0.078c0,0.014-0.015,0.047-0.045,0.063l0.061,0.105h-0.076l-0.029-0.092h-0.047
			V19.656V19.52h0.031c0.016,0,0.031,0,0.031-0.018c0.014,0,0.014-0.014,0.014-0.031c0,0,0-0.014-0.014-0.014
			c0-0.018-0.017,0-0.031,0h-0.031V19.656L31.156,19.656L31.156,19.656z"/>
		<path fill="#1B3771" d="M14.278,20.045c-0.29,0.076-0.504,0.123-0.719,0.123c-0.458,0-0.734-0.297-0.734-0.82
			c0-0.109,0.015-0.215,0.031-0.34l0.06-0.355l0.047-0.293l0.414-2.535h0.917l-0.107,0.557h0.582l-0.138,0.928h-0.582l-0.244,1.514
			c-0.015,0.08-0.015,0.123-0.015,0.156c0,0.199,0.091,0.277,0.32,0.277c0.107,0,0.199-0.014,0.292-0.031L14.278,20.045
			L14.278,20.045z M17.247,20.016c-0.337,0.09-0.643,0.137-0.979,0.137c-1.041,0-1.638-0.557-1.638-1.652
			c0-1.285,0.705-2.211,1.685-2.211c0.78,0,1.285,0.527,1.285,1.344c0,0.279-0.031,0.543-0.107,0.912h-1.913
			c-0.016,0.064-0.016,0.096-0.016,0.125c0,0.434,0.29,0.646,0.842,0.646c0.352,0,0.657-0.074,0.995-0.23L17.247,20.016z
			 M16.681,17.805v-0.188c0-0.309-0.169-0.479-0.46-0.479c-0.305,0-0.521,0.23-0.612,0.664h1.072V17.805L16.681,17.805z
			 M6.933,20.09H5.986l0.551-3.508L5.296,20.09H4.639l-0.076-3.492L3.982,20.09H3.047l0.749-4.557H5.19l0.03,2.813l0.935-2.813h1.53
			L6.933,20.09L6.933,20.09z M9.245,18.438c-0.092-0.016-0.123-0.016-0.182-0.016c-0.552,0-0.826,0.215-0.826,0.557
			c0,0.229,0.138,0.383,0.351,0.383C9.047,19.365,9.23,18.979,9.245,18.438L9.245,18.438z M10.01,20.09H9.183l0.016-0.387
			c-0.213,0.295-0.504,0.449-1.011,0.449c-0.458,0-0.856-0.418-0.856-1.02c0-0.168,0.029-0.326,0.076-0.479
			c0.153-0.57,0.718-0.928,1.591-0.941c0.105,0,0.274,0,0.428,0.014c0.029-0.123,0.029-0.168,0.029-0.246
			c0-0.248-0.199-0.324-0.643-0.324c-0.274,0-0.58,0.047-0.793,0.121l-0.137,0.031l-0.061,0.018l0.138-0.834
			c0.443-0.141,0.766-0.201,1.117-0.201c0.826,0,1.27,0.385,1.27,1.096c0,0.186,0.016,0.326-0.047,0.727l-0.213,1.328l-0.031,0.232
			l-0.015,0.184l-0.017,0.125L10.01,20.09L10.01,20.09z M21.868,16.414c0.274,0,0.521,0.076,0.858,0.246l0.168-0.99
			c-0.092-0.045-0.123-0.045-0.246-0.092l-0.381-0.107c-0.123-0.031-0.273-0.047-0.443-0.047c-0.475,0-0.75,0.016-1.041,0.186
			c-0.153,0.107-0.352,0.248-0.567,0.496l-0.121-0.033l-0.979,0.695l0.045-0.387h-1.01l-0.597,3.711h0.964l0.354-1.992
			c0,0,0.137-0.279,0.197-0.373c0.184-0.23,0.336-0.23,0.535-0.23h0.076c-0.031,0.236-0.048,0.473-0.045,0.711
			c0,1.205,0.672,1.963,1.713,1.963c0.262,0,0.49-0.031,0.842-0.127l0.168-1.047c-0.305,0.168-0.582,0.246-0.811,0.246
			c-0.566,0-0.903-0.434-0.903-1.111C20.644,17.123,21.149,16.414,21.868,16.414L21.868,16.414z M29.994,15.533l-0.217,1.297
			c-0.229-0.355-0.504-0.523-0.871-0.523c-0.504,0-0.979,0.291-1.27,0.848v-0.016l-0.612-0.371l0.062-0.385h-1.027L25.48,20.09
			h0.947l0.322-1.994c0,0,0.243-0.277,0.305-0.369c0.152-0.186,0.305-0.219,0.427-0.232c-0.106,0.311-0.167,0.682-0.167,1.098
			c0,0.926,0.473,1.543,1.176,1.543c0.354,0,0.63-0.123,0.889-0.416l-0.048,0.371h0.903l0.734-4.557H29.994L29.994,15.533z
			 M28.814,19.209c-0.322,0-0.489-0.246-0.489-0.727c0-0.725,0.306-1.25,0.749-1.25c0.337,0,0.506,0.262,0.506,0.727
			C29.58,18.699,29.273,19.209,28.814,19.209L28.814,19.209z M24.393,18.438c-0.092-0.016-0.121-0.016-0.184-0.016
			c-0.549,0-0.825,0.215-0.825,0.557c0,0.229,0.14,0.383,0.351,0.383C24.193,19.365,24.377,18.979,24.393,18.438z M25.158,20.09
			h-0.842l0.031-0.387c-0.215,0.295-0.504,0.449-1.01,0.449c-0.477,0-0.889-0.4-0.889-1.02c0-0.881,0.659-1.42,1.701-1.42
			c0.104,0,0.273,0,0.41,0.014c0.032-0.123,0.047-0.17,0.047-0.246c0-0.248-0.197-0.326-0.656-0.326
			c-0.26,0-0.582,0.049-0.797,0.123l-0.122,0.031l-0.062,0.018l0.141-0.836c0.442-0.139,0.764-0.201,1.115-0.201
			c0.826,0,1.256,0.387,1.256,1.1c0,0.184,0.029,0.324-0.045,0.725l-0.199,1.33l-0.031,0.23l-0.031,0.184l-0.015,0.123v0.109H25.158
			L25.158,20.09z M12.015,17.17c0.182,0,0.443,0.016,0.718,0.061l0.139-0.865c-0.276-0.029-0.642-0.076-0.856-0.076
			c-1.071,0-1.423,0.588-1.423,1.268c0,0.449,0.199,0.771,0.719,1.02c0.383,0.188,0.444,0.215,0.444,0.387
			c0,0.23-0.199,0.371-0.566,0.371c-0.292,0-0.565-0.047-0.872-0.154l-0.108,0.848l0.017,0.014l0.183,0.031
			c0.062,0.018,0.138,0.033,0.245,0.049c0.23,0.014,0.43,0.031,0.551,0.031c1.071,0,1.515-0.422,1.515-1.236
			c0-0.512-0.245-0.82-0.718-1.037c-0.414-0.184-0.461-0.217-0.461-0.385C11.539,17.326,11.723,17.17,12.015,17.17z"/>
		<path fill="#FFFFFF" d="M23.153,15.379l-0.169,0.986c-0.336-0.168-0.58-0.246-0.857-0.246c-0.719,0-1.223,0.711-1.223,1.717
			c0,0.691,0.338,1.111,0.902,1.111c0.23,0,0.504-0.078,0.813-0.232l-0.169,1.037c-0.351,0.092-0.581,0.141-0.841,0.141
			c-1.041,0-1.684-0.76-1.684-1.979c0-1.625,0.889-2.766,2.156-2.766c0.17,0,0.322,0.016,0.445,0.045l0.382,0.094
			C23.031,15.332,23.062,15.344,23.153,15.379z M20.063,16.057h-0.091c-0.322,0-0.505,0.156-0.798,0.604l0.092-0.57h-0.871
			l-0.595,3.707h0.964c0.352-2.271,0.445-2.658,0.902-2.658h0.061c0.092-0.449,0.217-0.773,0.367-1.066L20.063,16.057L20.063,16.057
			z M14.524,19.752c-0.26,0.092-0.474,0.119-0.689,0.119c-0.49,0-0.765-0.275-0.765-0.816c0-0.092,0.014-0.217,0.031-0.322
			l0.061-0.373l0.044-0.293l0.415-2.533h0.947l-0.108,0.555h0.492l-0.125,0.91H14.34l-0.26,1.547
			c-0.016,0.061-0.016,0.107-0.016,0.154c0,0.184,0.091,0.264,0.322,0.264c0.106,0,0.198,0,0.26-0.033L14.524,19.752L14.524,19.752z
			 M10.836,17.262c0,0.465,0.213,0.787,0.719,1.037c0.399,0.184,0.46,0.246,0.46,0.4c0,0.23-0.168,0.342-0.551,0.342
			c-0.291,0-0.551-0.045-0.857-0.139l-0.138,0.85l0.046,0.014l0.168,0.031c0.062,0.016,0.138,0.031,0.26,0.031
			c0.212,0.029,0.396,0.029,0.52,0.029c1.009,0,1.485-0.387,1.485-1.234c0-0.51-0.199-0.803-0.674-1.037
			c-0.413-0.186-0.46-0.23-0.46-0.4c0-0.201,0.17-0.295,0.474-0.295c0.184,0,0.443,0.016,0.689,0.049l0.138-0.852
			c-0.245-0.045-0.628-0.078-0.841-0.078C11.204,16.01,10.82,16.582,10.836,17.262L10.836,17.262z M30.481,19.797H29.58l0.045-0.357
			c-0.26,0.279-0.535,0.402-0.889,0.402c-0.703,0-1.16-0.6-1.16-1.529c0-1.236,0.717-2.287,1.558-2.287
			c0.384,0,0.659,0.172,0.919,0.51l0.213-1.297h0.949L30.481,19.797L30.481,19.797z M29.074,18.93c0.445,0,0.752-0.525,0.752-1.248
			c0-0.479-0.171-0.729-0.505-0.729c-0.427,0-0.752,0.51-0.752,1.236C28.569,18.684,28.736,18.93,29.074,18.93L29.074,18.93z
			 M17.462,19.719c-0.338,0.109-0.643,0.152-0.995,0.152c-1.07,0-1.622-0.572-1.622-1.666c0-1.266,0.704-2.211,1.667-2.211
			c0.796,0,1.3,0.527,1.3,1.346c0,0.279-0.028,0.541-0.122,0.926h-1.897c-0.015,0.049-0.015,0.08-0.015,0.109
			c0,0.432,0.291,0.648,0.841,0.648c0.352,0,0.66-0.061,0.994-0.23L17.462,19.719L17.462,19.719z M16.926,17.51v-0.184
			c0-0.311-0.168-0.48-0.459-0.48c-0.306,0-0.521,0.234-0.613,0.664H16.926z M7.179,19.797H6.23l0.551-3.508l-1.24,3.508H4.883
			l-0.077-3.479l-0.581,3.479H3.339l0.749-4.559h1.377l0.046,2.826l0.919-2.826h1.499L7.179,19.797L7.179,19.797z M9.55,18.145
			c-0.092,0-0.138-0.014-0.214-0.014c-0.536,0-0.812,0.197-0.812,0.57c0,0.229,0.123,0.369,0.338,0.369
			C9.259,19.07,9.535,18.699,9.55,18.145L9.55,18.145z M10.253,19.797H9.458l0.016-0.387c-0.244,0.309-0.565,0.447-1.008,0.447
			c-0.52,0-0.872-0.4-0.872-1.002c0-0.912,0.611-1.438,1.682-1.438c0.107,0,0.244,0.014,0.398,0.031
			c0.03-0.123,0.03-0.172,0.03-0.232c0-0.246-0.169-0.342-0.613-0.342c-0.275,0-0.581,0.031-0.796,0.096l-0.137,0.045l-0.092,0.016
			l0.139-0.834c0.475-0.141,0.796-0.188,1.146-0.188c0.826,0,1.27,0.373,1.27,1.084c0,0.184-0.015,0.324-0.075,0.738l-0.216,1.314
			l-0.03,0.23l-0.015,0.186l-0.017,0.141L10.253,19.797L10.253,19.797z M24.699,18.145c-0.107,0-0.154-0.014-0.214-0.014
			c-0.552,0-0.827,0.197-0.827,0.57c0,0.229,0.139,0.369,0.352,0.369C24.393,19.07,24.684,18.699,24.699,18.145L24.699,18.145z
			 M25.402,19.797h-0.796l0.017-0.387c-0.246,0.309-0.566,0.447-1.012,0.447c-0.52,0-0.872-0.4-0.872-1.002
			c0-0.912,0.612-1.438,1.685-1.438c0.107,0,0.244,0.014,0.381,0.031c0.032-0.123,0.047-0.172,0.047-0.232
			c0-0.246-0.168-0.342-0.611-0.342c-0.275,0-0.598,0.031-0.811,0.096l-0.124,0.045l-0.091,0.016l0.139-0.834
			c0.473-0.141,0.793-0.188,1.146-0.188c0.824,0,1.254,0.373,1.254,1.084c0,0.184,0,0.324-0.076,0.738l-0.197,1.314l-0.031,0.23
			l-0.031,0.186l-0.016,0.141V19.797L25.402,19.797L25.402,19.797z M27.974,16.057h-0.092c-0.323,0-0.506,0.156-0.796,0.604
			l0.092-0.57h-0.871l-0.582,3.707h0.947c0.353-2.271,0.445-2.658,0.904-2.658h0.06c0.093-0.449,0.214-0.773,0.368-1.066
			L27.974,16.057L27.974,16.057z"/>
	</g>
</g>
</svg>
