<?xml version="1.0" encoding="utf-8"?>
<!-- Generator: Adobe Illustrator 16.0.0, SVG Export Plug-In . SVG Version: 6.00 Build 0)  -->
<!DOCTYPE svg PUBLIC "-//W3C//DTD SVG 1.1//EN" "http://www.w3.org/Graphics/SVG/1.1/DTD/svg11.dtd">
<svg version="1.1" id="Calque_1" xmlns="http://www.w3.org/2000/svg" xmlns:xlink="http://www.w3.org/1999/xlink" x="0px" y="0px"
	 width="20px" height="20px" viewBox="0 0 20 20" enable-background="new 0 0 20 20" xml:space="preserve">
<g>
	<g>
		<g>
			<path fill=" #052b6" d="M19.693,19.779H0.306C0.136,19.779,0,19.644,0,19.473V7.63c0-0.097,0.047-0.19,0.125-0.249l9.694-7.103
				c0.108-0.079,0.254-0.079,0.361,0l9.695,7.103C19.953,7.44,20,7.533,20,7.63v11.842C20,19.644,19.863,19.779,19.693,19.779z
				 M0.611,19.168h18.778V7.785L10,0.907L0.611,7.785V19.168z"/>
		</g>
		<g>
			<path fill=" #052b6" d="M19.693,19.779c-0.067,0-0.135-0.022-0.192-0.069L10,11.932L0.5,19.71
				c-0.132,0.108-0.324,0.088-0.431-0.042c-0.106-0.13-0.087-0.323,0.043-0.429L9.806,11.3c0.113-0.093,0.275-0.093,0.388,0
				l9.694,7.939c0.131,0.105,0.15,0.299,0.043,0.429C19.871,19.742,19.782,19.779,19.693,19.779z"/>
		</g>
		<g>
			<path fill=" #052b6" d="M7.563,13.567c-0.064,0-0.13-0.021-0.185-0.063L0.325,8.159c-0.135-0.1-0.161-0.294-0.06-0.426
				C0.368,7.598,0.56,7.57,0.693,7.673l7.055,5.344c0.133,0.104,0.161,0.295,0.058,0.428C7.747,13.525,7.655,13.567,7.563,13.567z"
				/>
		</g>
		<g>
			<path fill=" #052b6" d="M12.438,13.567c-0.093,0-0.183-0.042-0.244-0.122c-0.103-0.133-0.076-0.324,0.06-0.428l7.053-5.344
				c0.135-0.104,0.327-0.075,0.429,0.06c0.103,0.132,0.076,0.326-0.058,0.426l-7.056,5.346
				C12.567,13.547,12.502,13.567,12.438,13.567z"/>
		</g>
	</g>
</g>
</svg>
