<?xml version="1.0" encoding="utf-8"?>
<!-- Generator: Adobe Illustrator 16.0.0, SVG Export Plug-In . SVG Version: 6.00 Build 0)  -->
<!DOCTYPE svg PUBLIC "-//W3C//DTD SVG 1.1//EN" "http://www.w3.org/Graphics/SVG/1.1/DTD/svg11.dtd">
<svg version="1.1" id="Calque_1" xmlns="http://www.w3.org/2000/svg" xmlns:xlink="http://www.w3.org/1999/xlink" x="0px" y="0px"
	 width="22px" height="20px" viewBox="0 0 30 25" enable-background="new 0 0 30 25" xml:space="preserve">
<g>
	<g>
		<g>
			<g>
				<rect x="21.153" y="11.617" fill="#e43e0f" width="8.289" height="1.365"/>
			</g>
			<g>
				<rect x="24.624" y="8.106" fill="#e43e0f" width="1.35" height="8.386"/>
			</g>
		</g>
		<path id="_xD83D__xDD39_-Icon-Color_8_" fill="#e43e0f" d="M12.641,12.502c3.493,0,6.32-2.797,6.32-6.25
			C18.961,2.8,16.134,0,12.641,0S6.32,2.798,6.32,6.25C6.32,9.704,9.147,12.502,12.641,12.502z M12.641,15.626
			C8.423,15.626,0,17.72,0,21.874v1.563C0,24.296,0.711,25,1.58,25h22.121c0.869,0,1.58-0.704,1.58-1.563v-1.563
			C25.28,17.722,16.86,15.626,12.641,15.626z"/>
	</g>
</g>
</svg>
