<?xml version="1.0" encoding="utf-8"?>
<!-- Generator: Adobe Illustrator 16.0.0, SVG Export Plug-In . SVG Version: 6.00 Build 0)  -->
<!DOCTYPE svg PUBLIC "-//W3C//DTD SVG 1.1//EN" "http://www.w3.org/Graphics/SVG/1.1/DTD/svg11.dtd">
<svg version="1.1" id="Calque_1" xmlns="http://www.w3.org/2000/svg" xmlns:xlink="http://www.w3.org/1999/xlink" x="0px" y="0px"
	 width="13px" height="13px" viewBox="0 0 12 12" enable-background="new 0 0 12 12" xml:space="preserve">
<g>
	<path fill="#FFFFFF" d="M11.977,8.984v1.807c0.002,0.665-0.535,1.207-1.199,1.209c-0.037,0-0.077,0-0.113-0.004
		c-1.854-0.202-3.634-0.836-5.198-1.85C4.012,9.223,2.778,7.988,1.854,6.534c-1.019-1.571-1.651-3.36-1.849-5.222
		c-0.06-0.663,0.428-1.248,1.09-1.309C1.131,0.002,1.166,0,1.203,0h1.806C3.615-0.006,4.13,0.437,4.214,1.035
		C4.29,1.613,4.432,2.181,4.636,2.728c0.166,0.44,0.06,0.937-0.271,1.271L3.6,4.763C4.457,6.27,5.706,7.52,7.213,8.376l0.765-0.765
		c0.335-0.331,0.83-0.436,1.271-0.271c0.547,0.202,1.115,0.345,1.691,0.421C11.546,7.848,11.991,8.373,11.977,8.984z"/>
</g>
</svg>
