<?xml version="1.0" encoding="utf-8"?>
<!-- Generator: Adobe Illustrator 16.0.0, SVG Export Plug-In . SVG Version: 6.00 Build 0)  -->
<!DOCTYPE svg PUBLIC "-//W3C//DTD SVG 1.1//EN" "http://www.w3.org/Graphics/SVG/1.1/DTD/svg11.dtd">
<svg version="1.1" id="Calque_1" xmlns="http://www.w3.org/2000/svg" xmlns:xlink="http://www.w3.org/1999/xlink" x="0px" y="0px"
	 width="21px" height="21px" viewBox="0 0 21 21" enable-background="new 0 0 21 21" xml:space="preserve">
<g>
	<path fill="#FFFFFF" d="M18.436,21c-0.072,0-0.145-0.004-0.216-0.012c-3.152-0.342-6.223-1.434-8.882-3.158
		c-2.467-1.568-4.603-3.703-6.171-6.174c-1.729-2.665-2.82-5.75-3.156-8.916c-0.062-0.675,0.142-1.325,0.57-1.84
		C1.01,0.387,1.613,0.07,2.28,0.01C2.352,0.003,2.429,0,2.505,0h3.01c1.262,0,2.328,0.927,2.503,2.156
		c0.123,0.931,0.35,1.843,0.676,2.716c0.343,0.911,0.122,1.949-0.564,2.644L7.125,8.519c1.311,2.179,3.137,4.005,5.314,5.315
		l1.002-1.002c0.69-0.684,1.74-0.908,2.646-0.566c0.872,0.326,1.784,0.553,2.71,0.676c1.265,0.178,2.191,1.271,2.161,2.545v2.998
		c0.004,1.381-1.117,2.51-2.498,2.516H18.436z M5.535,1h-3.03C2.462,1,2.418,1.001,2.374,1.006C1.97,1.042,1.606,1.232,1.349,1.542
		s-0.38,0.7-0.343,1.101c0.318,3.003,1.357,5.936,3.003,8.475c1.493,2.352,3.521,4.379,5.87,5.871
		c2.531,1.643,5.451,2.682,8.445,3.006C18.359,19.998,18.397,20,18.436,20v0.5l0.016-0.5c0.836-0.004,1.51-0.684,1.508-1.514v-3.014
		c0.019-0.777-0.539-1.434-1.297-1.541c-0.995-0.131-1.98-0.377-2.925-0.73c-0.551-0.205-1.178-0.07-1.591,0.34l-1.542,1.541
		l-0.331-0.188c-2.59-1.473-4.736-3.619-6.209-6.209L5.876,8.354L7.42,6.811c0.41-0.416,0.543-1.04,0.337-1.588
		c-0.353-0.945-0.599-1.931-0.73-2.931C6.923,1.557,6.281,1,5.535,1z"/>
</g>
</svg>
