<?xml version="1.0" encoding="utf-8"?>
<!-- Generator: Adobe Illustrator 16.0.0, SVG Export Plug-In . SVG Version: 6.00 Build 0)  -->
<!DOCTYPE svg PUBLIC "-//W3C//DTD SVG 1.1//EN" "http://www.w3.org/Graphics/SVG/1.1/DTD/svg11.dtd">
<svg version="1.1" id="Calque_1" xmlns="http://www.w3.org/2000/svg" xmlns:xlink="http://www.w3.org/1999/xlink" x="0px" y="0px"
	 width="15px" height="15px" viewBox="0 0 19 15" enable-background="new 0 0 19 15" xml:space="preserve">
<g>
	<path fill="#ffffff" d="M18.9,1.842c-0.706,0.303-1.454,0.502-2.219,0.589c0.804-0.469,1.406-1.209,1.694-2.079
		c-0.757,0.438-1.584,0.746-2.448,0.912c-1.459-1.514-3.902-1.586-5.456-0.166C9.47,2.018,9.046,3.386,9.354,4.691
		C6.256,4.541,3.367,3.115,1.41,0.768c-1.021,1.716-0.5,3.91,1.193,5.015c-0.612-0.02-1.21-0.18-1.745-0.473v0.049
		c0,1.79,1.292,3.328,3.093,3.682C3.383,9.192,2.787,9.216,2.209,9.108c0.505,1.529,1.952,2.58,3.605,2.609
		C4.194,12.95,2.14,13.509,0.1,13.273c5.101,3.181,11.881,1.734,15.152-3.232c1.132-1.723,1.732-3.726,1.73-5.769
		c0-0.164,0-0.326-0.011-0.488c0.758-0.529,1.41-1.189,1.927-1.943L18.9,1.842z"/>
</g>
</svg>
