<?xml version="1.0" encoding="utf-8"?>
<!-- Generator: Adobe Illustrator 16.0.0, SVG Export Plug-In . SVG Version: 6.00 Build 0)  -->
<!DOCTYPE svg PUBLIC "-//W3C//DTD SVG 1.1//EN" "http://www.w3.org/Graphics/SVG/1.1/DTD/svg11.dtd">
<svg version="1.1" id="Calque_1" xmlns="http://www.w3.org/2000/svg" xmlns:xlink="http://www.w3.org/1999/xlink" x="0px" y="0px"
	 width="35px" height="35px" viewBox="0 0 35 35" enable-background="new 0 0 35 35" xml:space="preserve">
<g>
	<g>
		<path fill="#022D44" d="M33.214,0h-31C1.11,0,0,0.836,0,1.941v30.871l34.225-32.5C33.906,0.096,33.628,0,33.214,0z"/>
		<path fill="#06364C" d="M34.117,0.283L0,32.813v0.129C0,34.045,1.11,35,2.214,35h31C34.319,35,35,34.045,35,32.941v-31
			C35,1.25,34.65,0.643,34.117,0.283z"/>
	</g>
	<g>
		<g>
			<polygon fill="#FFFFFF" points="29.657,18.822 29.48,18.822 28.943,16.254 28.016,18.822 27.704,18.822 28.943,15.404 			"/>
			<path fill="#FFFFFF" d="M11.941,12.973L9.486,19.24l-0.231-1.211c-0.048-0.121-0.098-0.277-0.15-0.521
				c-0.36-1.623-2.368-2.729-3.079-3.076c0.088,0.121,0.144,0.367,0.201,0.6l1.88,7.363h2.492l3.819-9.422H11.941L11.941,12.973z"/>
			<path fill="#F9AB40" d="M9.104,17.525c0.054,0.244,0.103,0.416,0.15,0.537L9.2,17.773l-0.704-3.805
				c-0.117-0.588-0.578-0.996-1.089-0.996h-4.01L3.34,13.305c0.5,0.109,1.04,0.291,1.517,0.459c0.307,0.111,0.587,0.246,0.811,0.369
				c0.168,0.09,0.276,0.184,0.357,0.301C6.736,14.779,8.744,15.9,9.104,17.525z"/>
			<path fill="#FFFFFF" d="M30.614,13.043h-2.012c-0.46,0-0.84,0.336-1.008,0.738l-3.535,8.51h2.471l0.5-1.156h3.018l0.293,1.156
				h2.178L30.614,13.043z M27.704,18.822l0.312-0.711l0.928-2.498l0.538,2.465l0.176,0.744H27.704z"/>
			<path fill="#FFFFFF" d="M20.878,15.633c0.009-0.326,0.318-0.674,1.003-0.764c0.334-0.041,1.267-0.076,2.321,0.408l0.415-1.93
				c-0.569-0.207-1.299-0.408-2.206-0.408c-2.33,0-3.969,1.242-3.98,3.014c-0.02,1.313,1.167,2.045,2.061,2.48
				c0.92,0.445,1.229,0.732,1.225,1.133c-0.007,0.609-0.731,0.879-1.411,0.891c-1.186,0.02-1.874-0.32-2.422-0.576l-0.428,1.996
				c0.551,0.254,1.566,0.475,2.623,0.484c2.475,0,4.094-1.221,4.104-3.115C24.192,16.84,20.855,16.709,20.878,15.633z"/>
			<polygon fill="#FFFFFF" points="15.429,12.973 13.479,22.395 15.836,22.395 17.784,12.973 			"/>
		</g>
	</g>
</g>
</svg>
