<?xml version="1.0" encoding="utf-8"?>
<!-- Generator: Adobe Illustrator 16.0.0, SVG Export Plug-In . SVG Version: 6.00 Build 0)  -->
<!DOCTYPE svg PUBLIC "-//W3C//DTD SVG 1.1//EN" "http://www.w3.org/Graphics/SVG/1.1/DTD/svg11.dtd">
<svg version="1.1" id="Calque_1" xmlns="http://www.w3.org/2000/svg" xmlns:xlink="http://www.w3.org/1999/xlink" x="0px" y="0px"
	 width="15px" height="15px" viewBox="0 0 16 19" enable-background="new 0 0 16 19" xml:space="preserve">
<g>
	<g>
		<path fill="#fff" d="M15.525,9.886c-0.092-0.413-0.293-0.76-0.605-1.041S14.248,8.4,13.842,8.351
			C12.55,8.21,10.604,8.14,8,8.14S3.453,8.21,2.17,8.351C1.756,8.4,1.395,8.563,1.085,8.845c-0.308,0.281-0.513,0.628-0.61,1.041
			C0.293,10.7,0.201,11.928,0.201,13.57c0,1.67,0.092,2.897,0.273,3.684c0.092,0.414,0.293,0.761,0.605,1.042
			c0.313,0.28,0.672,0.441,1.078,0.483C3.451,18.927,5.396,19,8.001,19c2.603,0,4.55-0.073,5.841-0.221
			c0.406-0.042,0.764-0.203,1.072-0.483c0.309-0.281,0.514-0.628,0.611-1.042c0.182-0.813,0.273-2.042,0.273-3.684
			C15.799,11.9,15.707,10.673,15.525,9.886z M4.654,10.949H3.527v5.989H2.475v-5.989H1.37V9.96h3.284V10.949L4.654,10.949z
			 M7.495,16.938H6.559V16.37c-0.379,0.428-0.736,0.641-1.074,0.641c-0.322,0-0.525-0.13-0.609-0.389
			c-0.057-0.169-0.084-0.425-0.084-0.769v-4.115h0.936v3.831c0,0.225,0.004,0.348,0.011,0.369c0.021,0.146,0.095,0.221,0.222,0.221
			c0.189,0,0.389-0.147,0.6-0.441v-3.979h0.937V16.938L7.495,16.938z M11.074,15.38c0,0.513-0.033,0.863-0.096,1.053
			c-0.119,0.386-0.368,0.578-0.747,0.578c-0.337,0-0.663-0.192-0.979-0.578v0.506H8.316V9.96h0.937v2.284
			c0.302-0.378,0.628-0.568,0.979-0.568c0.379,0,0.628,0.198,0.747,0.59c0.063,0.182,0.096,0.53,0.096,1.042V15.38z M14.631,14.518
			h-1.885v0.916c0,0.483,0.162,0.726,0.485,0.726c0.23,0,0.371-0.126,0.42-0.379c0.014-0.07,0.021-0.283,0.021-0.642h0.958v0.137
			c0,0.343-0.008,0.547-0.021,0.61c-0.021,0.188-0.094,0.379-0.221,0.567c-0.252,0.373-0.632,0.558-1.137,0.558
			c-0.484,0-0.863-0.178-1.137-0.536c-0.203-0.259-0.305-0.666-0.305-1.221v-1.82c0-0.555,0.098-0.961,0.295-1.222
			c0.273-0.357,0.648-0.536,1.126-0.536c0.47,0,0.841,0.179,1.115,0.536c0.19,0.261,0.284,0.667,0.284,1.222V14.518L14.631,14.518z"
			/>
		<path fill="#fff" d="M9.726,12.528c-0.161,0-0.319,0.077-0.474,0.23v3.169c0.154,0.155,0.313,0.231,0.474,0.231
			c0.273,0,0.411-0.234,0.411-0.706v-2.219C10.137,12.764,10,12.528,9.726,12.528z"/>
		<path fill="#052a69" d="M13.22,12.528c-0.315,0-0.474,0.239-0.474,0.715v0.484h0.948v-0.484
			C13.694,12.767,13.535,12.528,13.22,12.528z"/>
		<path fill="#052a69" d="M4.044,4.341v2.852h1.052V4.341l1.273-4.2H5.295L4.58,2.909L3.832,0.141H2.717
			c0.197,0.59,0.426,1.247,0.685,1.969C3.731,3.077,3.945,3.821,4.044,4.341z"/>
		<path fill="#052a69" d="M7.779,7.266c0.484,0,0.855-0.179,1.115-0.536c0.197-0.259,0.295-0.673,0.295-1.241V3.646
			c0-0.561-0.098-0.971-0.295-1.23c-0.26-0.358-0.631-0.538-1.115-0.538c-0.471,0-0.84,0.18-1.105,0.538
			c-0.196,0.26-0.294,0.67-0.294,1.23v1.843c0,0.561,0.098,0.975,0.294,1.241C6.939,7.087,7.309,7.266,7.779,7.266z M7.326,3.456
			c0-0.484,0.15-0.726,0.453-0.726s0.453,0.241,0.453,0.726v2.211c0,0.491-0.15,0.736-0.453,0.736S7.326,6.157,7.326,5.667V3.456z"
			/>
		<path fill="#fff" d="M10.674,7.266c0.351,0,0.713-0.216,1.084-0.652v0.579h0.957V1.94h-0.957v4.01
			c-0.211,0.302-0.41,0.453-0.601,0.453c-0.126,0-0.2-0.077-0.221-0.232c-0.007-0.014-0.011-0.137-0.011-0.368V1.94H9.969v4.147
			c0,0.357,0.027,0.62,0.084,0.789C10.144,7.136,10.35,7.266,10.674,7.266z"/>
	</g>
</g>
</svg>
